<?xml version="1.0" encoding="utf-8"?>
<!-- Generator: Adobe Illustrator 24.1.0, SVG Export Plug-In . SVG Version: 6.00 Build 0)  -->
<svg version="1.1" id="Layer_1" xmlns="http://www.w3.org/2000/svg" xmlns:xlink="http://www.w3.org/1999/xlink" x="0px" y="0px"
	 viewBox="0 0 32.2 19.6" style="enable-background:new 0 0 32.2 19.6;" xml:space="preserve">
<style type="text/css">
	.st0{fill:#FFFFFF;}
</style>
<path class="st0" d="M31.9,2.4L18.1,18.6c-0.2,0.3-0.4,0.5-0.8,0.7c-0.3,0.2-0.7,0.3-1,0.3h-0.1h-0.1c-0.4,0-0.7-0.1-1-0.3
	c-0.4-0.2-0.7-0.4-0.8-0.7L0.3,2.4C-0.3,1.7,0,0.8,0.9,0.2l0,0c1-0.4,2.3-0.3,2.9,0.4L16.1,15L28.4,0.8c0.6-0.7,1.9-1,2.9-0.4l0,0
	C32.2,0.8,32.5,1.7,31.9,2.4z"/>
</svg>
