<svg xmlns="http://www.w3.org/2000/svg" width="66.999" height="79.002" viewBox="0 0 66.999 79.002">
  <defs>
    <style>
      .cls-1 {
        fill: none;
        stroke-linecap: round;
      }

      .cls-2 {
        fill: #4b555d;
      }

      .cls-3, .cls-4 {
        stroke: none;
      }

      .cls-4 {
        fill: #869aa9;
      }
    </style>
  </defs>
  <g id="Group_110" data-name="Group 110" transform="translate(-350.001 -516.999)">
    <g id="Union_14" data-name="Union 14" class="cls-1" transform="translate(365 517)">
      <path class="cls-3" d="M0,74V44.048H.179c1.13-7,7.542-12.824,16.265-15.326a16.42,16.42,0,1,1,21.09.638c7.7,2.771,13.245,8.231,14.288,14.688H52V74Z"/>
      <path class="cls-4" d="M 46.99996566772461 69.00089263916016 L 46.99996566772461 45.55231094360352 L 46.88576507568359 44.84546279907227 C 46.54556274414062 42.73970413208008 45.4135627746582 40.65910720825195 43.61217880249023 38.82859039306641 C 41.64983749389648 36.83451843261719 38.96290588378906 35.18723297119141 35.84189224243164 34.06484985351562 L 27.37160682678223 31.01876258850098 L 34.43349456787109 25.43716239929199 C 37.2016487121582 23.24926376342773 38.78926467895508 19.97142028808594 38.78926467895508 16.444091796875 C 38.78926467895508 13.38570594787598 37.60044860839844 10.51074886322021 35.44179153442383 8.348834037780762 C 33.28507995605469 6.188848495483398 30.41802215576172 4.99929141998291 27.36876487731934 4.99929141998291 C 24.31937789916992 4.99929141998291 21.45212173461914 6.188891410827637 19.29515075683594 8.348962783813477 C 17.13629341125488 10.51092052459717 15.94736385345459 13.38583469390869 15.94736385345459 16.444091796875 C 15.94736385345459 18.1076488494873 16.29409217834473 19.70926284790039 16.97790718078613 21.20442008972168 C 17.64003562927246 22.65219116210938 18.58089256286621 23.92662048339844 19.77434921264648 24.99233436584473 L 26.53452110290527 31.0289192199707 L 17.82275009155273 33.52797698974609 C 14.2586498260498 34.55037689208984 11.16447830200195 36.21974945068359 8.874735832214355 38.35560607910156 C 6.786178588867188 40.3038215637207 5.486021518707275 42.54797744750977 5.114850044250488 44.8454475402832 L 5.000649929046631 45.55229949951172 L 5.000649929046631 46.2664909362793 L 5.000649929046631 69.00089263916016 L 46.99996566772461 69.00089263916016 M 51.99996566772461 74.00089263916016 L 0.0006499402807094157 74.00089263916016 L 0.0006499402807094157 46.2664909362793 L 0.0006499402807094157 44.04799270629883 L 0.1788499355316162 44.04799270629883 C 1.309307098388672 37.05087661743164 7.720907211303711 31.22414779663086 16.44404983520508 28.72182083129883 C 13.07120704650879 25.70999145507812 10.94736385345459 21.32539176940918 10.94736385345459 16.444091796875 C 10.94736385345459 7.362191677093506 18.2994499206543 -0.0007084472454153001 27.36876487731934 -0.0007084472454153001 C 36.43806457519531 -0.0007084472454153001 43.78926467895508 7.362191677093506 43.78926467895508 16.444091796875 C 43.78926467895508 21.68237686157227 41.34417724609375 26.3482780456543 37.53390884399414 29.35984802246094 C 45.23879241943359 32.13069152832031 50.77852249145508 37.59074783325195 51.8217658996582 44.04799270629883 L 51.99996566772461 44.04799270629883 L 51.99996566772461 74.00089263916016 Z"/>
    </g>
    <path id="Union_11" data-name="Union 11" class="cls-2" d="M0,74V44.048H.179c1.13-7,7.542-12.824,16.265-15.326a16.42,16.42,0,1,1,21.09.638c7.7,2.771,13.245,8.231,14.288,14.688H52V74Z" transform="translate(350 522)"/>
  </g>
</svg>
