<?xml version="1.0" encoding="utf-8"?>
<!-- Generator: Adobe Illustrator 24.1.0, SVG Export Plug-In . SVG Version: 6.00 Build 0)  -->
<svg version="1.1" id="Layer_1" xmlns="http://www.w3.org/2000/svg" xmlns:xlink="http://www.w3.org/1999/xlink" x="0px" y="0px"
	 viewBox="0 0 44 38.6" style="enable-background:new 0 0 44 38.6;" xml:space="preserve">
<style type="text/css">
	.st0{opacity:0.939;}
	.st1{fill:#FFFFFF;}
</style>
<text transform="matrix(1 0 0 1 0.705 54)" class="st1" style="font-family:'PTSans-Caption'; font-size:10px;">QUERIES</text>
<g id="Group_8" transform="translate(-162.072 455.259)" class="st0">
	<path id="Path_18" class="st1" d="M196-450.2c2.9,3.2,4.3,7.5,4.3,12.7c0,5.1-1.4,9.3-4.1,12.4c1.2,1.6,2.5,3.3,3.8,5.2l-3.6,3.2
		c-1.3-1.9-2.5-3.6-3.8-5.3c-2.7,1.5-5.8,2.3-8.9,2.2c-5.3,0-9.4-1.7-12.3-5.1c-2.9-3.2-4.3-7.5-4.3-12.6c0-5.2,1.4-9.4,4.3-12.7
		c3-3.4,7.1-5.1,12.3-5.1S193-453.6,196-450.2z M175.4-446.8c-1.9,2.3-2.8,5.4-2.8,9.3s0.9,6.9,2.8,9.2c2,2.4,5.1,3.7,8.2,3.5
		c2,0,4-0.4,5.8-1.4c-1.7-2.1-3.3-4-4.9-5.6l3.2-3.2c1.7,1.8,3.3,3.6,5,5.5c1.4-2.5,2-5.3,1.9-8.1c0-4-1-7.2-2.8-9.5
		c-1.9-2.3-4.6-3.4-8.2-3.4C180.5-450.5,177.5-449.2,175.4-446.8L175.4-446.8z"/>
</g>
</svg>
