<?xml version="1.0" encoding="utf-8"?>
<!-- Generator: Adobe Illustrator 24.1.0, SVG Export Plug-In . SVG Version: 6.00 Build 0)  -->
<svg version="1.1" id="Layer_1" xmlns="http://www.w3.org/2000/svg" xmlns:xlink="http://www.w3.org/1999/xlink" x="0px" y="0px"
	 viewBox="0 0 72 51.3" style="enable-background:new 0 0 72 51.3;" xml:space="preserve">
<style type="text/css">
	.st0{opacity:0.998;}
	.st1{fill:none;}
	.st2{fill:#FFFFFF;}
</style>
<text transform="matrix(1 0 0 1 1.831055e-04 67.4998)" class="st2" style="font-family:'PTSans-Caption'; font-size:10px;">REGISTRATION</text>
<g id="Group_7" transform="translate(12.352 13)" class="st0">
	<g id="Union_20" transform="translate(44.648 592)">
		<path class="st1" d="M-32-556.5v-19h0.1c0.7-4.4,4.8-8.1,10.3-9.7c-4.3-3.9-4.7-10.5-0.9-14.8s10.5-4.6,14.8-0.8
			s4.7,10.4,0.8,14.7c-0.4,0.5-0.8,0.9-1.3,1.2c4.9,1.8,8.4,5.2,9.1,9.3H1v19L-32-556.5L-32-556.5z"/>
		<path class="st2" d="M-2-559.5v-15.1l-0.1-0.4c-0.2-1.4-1-2.7-2.1-3.9c-1.3-1.3-3.4-3.4-5.4-4.1l-2.7-1.4l2.3-2.7
			c1.8-1.4,2.8-3.6,2.8-5.9c0-4.1-3.3-7.4-7.4-7.4s-7.4,3.3-7.4,7.4c0,2.1,0.9,4.1,2.5,5.6l1.9,3.5l-3,1.7c-2.3,0.7-4.3,1.7-5.7,3.1
			c-1.6,1.1-2.4,2.6-2.7,4.1v0.4v0.5v14.6L-2-559.5 M1-556.5h-33v-17.6v-1.4h0.1c0.7-4.4,4.8-8.1,10.3-9.7c-2.1-1.9-3.5-4.7-3.5-7.8
			c0-5.8,4.7-10.4,10.4-10.4c5.8,0,10.4,4.7,10.4,10.4c0,3.3-1.6,6.3-4,8.2c4.9,1.8,8.4,5.2,9.1,9.3H1V-556.5z"/>
	</g>
	<path id="Union_23" class="st2" d="M2.6,37.5v-19h0.1c0.7-4.4,4.8-8.1,10.3-9.7C8.7,5,8.3-1.6,12.2-5.9c3.8-4.3,10.4-4.7,14.7-0.8
		C31.2-2.9,31.6,3.7,27.7,8c-0.4,0.5-0.8,0.9-1.3,1.2c4.9,1.8,8.4,5.2,9.1,9.3h0.1v19H2.6z"/>
</g>
</svg>
